<?xml version="1.0" encoding="utf-8"?>
<!-- Generator: Adobe Illustrator 22.0.1, SVG Export Plug-In . SVG Version: 6.00 Build 0)  -->
<svg version="1.1" id="Layer_1" xmlns="http://www.w3.org/2000/svg" xmlns:xlink="http://www.w3.org/1999/xlink" x="0px" y="0px"
	 viewBox="0 0 367 111" style="enable-background:new 0 0 367 111;" xml:space="preserve">
<style type="text/css">
	.st0{fill:#5288DF;}
	.st1{fill:#7CF3D3;}
	.st2{fill:#4DCBDD;}
	.st3{fill:#5050F9;}
	.st4{fill:#67C676;}
	.st5{fill:#C1F818;}
</style>
<g>
	<path id="XMLID_13_" class="st0" d="M54.9,10.7L54.9,10.7v15.6l0,0c10.8,0,20.4,6,25.8,14.4l13.2-7.8
		C86.7,19.7,71.7,10.7,54.9,10.7z"/>
	<path id="XMLID_7_" class="st1" d="M54.9,100.7L54.9,100.7V85.1l0,0c10.8,0,20.4-6,25.8-14.4l13.2,7.8
		C86.7,91.7,71.7,100.7,54.9,100.7z"/>
	<path id="XMLID_10_" class="st2" d="M80.7,70.7L80.7,70.7l13.2,7.8l0,0c4.2-6.6,6-14.4,6-22.8s-2.4-16.2-6-22.8l-13.2,7.8
		c2.4,4.2,4.2,9.6,4.2,15S83.7,66.5,80.7,70.7z"/>
	<path id="XMLID_4_" class="st3" d="M15.9,32.9l13.2,7.8c5.4-8.4,15-14.4,25.8-14.4l0,0V10.7l0,0C38.1,10.7,23.1,19.7,15.9,32.9z"/>
	<path id="XMLID_3_" class="st4" d="M15.9,78.5l13.2-7.8c4.8,8.4,14.4,14.4,25.8,14.4l0,0v15.6l0,0C38.1,100.7,23.1,91.7,15.9,78.5z
		"/>
	<path id="XMLID_2_" class="st5" d="M24.9,55.7c0-5.4,1.8-10.8,4.2-15l-13.2-7.8c-3.6,6.6-6,14.4-6,22.8s1.8,16.2,6,22.8l0,0
		l13.2-7.8l0,0C26.1,66.5,24.9,61.1,24.9,55.7z"/>
</g>
<g>
	<path d="M131,32.6h5.9v22.1h0.2c1.2-1.8,2.4-3.4,3.6-4.9l14-17.2h7.3L145.4,52l17.9,26.4h-7l-15-22.4l-4.4,5v17.5H131V32.6z"/>
	<path d="M168.3,55.8c0-3.9-0.1-7.2-0.3-10.3h5.2l0.2,6.5h0.3c1.5-4.4,5.1-7.2,9.1-7.2c0.7,0,1.2,0.1,1.7,0.2v5.6
		c-0.6-0.1-1.2-0.2-2-0.2c-4.2,0-7.2,3.2-8,7.7c-0.1,0.8-0.3,1.8-0.3,2.8v17.5h-5.9V55.8z"/>
	<path d="M218.1,69.5c0,3.4,0.1,6.4,0.3,9h-5.3l-0.3-5.4h-0.1c-1.6,2.7-5,6.1-10.9,6.1c-5.2,0-11.4-2.9-11.4-14.4V45.6h6v18.2
		c0,6.3,1.9,10.5,7.3,10.5c4,0,6.8-2.8,7.9-5.4c0.3-0.9,0.5-2,0.5-3.1V45.6h6V69.5z"/>
	<path d="M235.2,36.1v9.5h8.6v4.6h-8.6v17.7c0,4.1,1.2,6.4,4.5,6.4c1.6,0,2.7-0.2,3.5-0.4l0.3,4.5c-1.2,0.5-3,0.8-5.3,0.8
		c-2.8,0-5-0.9-6.5-2.5c-1.7-1.8-2.3-4.7-2.3-8.6v-18h-5.1v-4.6h5.1v-7.9L235.2,36.1z"/>
	<path d="M253.4,63.1c0.1,8.1,5.3,11.4,11.3,11.4c4.3,0,6.9-0.7,9.1-1.7l1,4.3c-2.1,1-5.7,2-10.9,2c-10.1,0-16.2-6.7-16.2-16.6
		s5.8-17.7,15.4-17.7c10.7,0,13.6,9.5,13.6,15.5c0,1.2-0.1,2.2-0.2,2.8C276.5,63.1,253.4,63.1,253.4,63.1z M271,58.8
		c0.1-3.8-1.6-9.7-8.3-9.7c-6.1,0-8.7,5.6-9.2,9.7H271z"/>
	<path d="M312.6,30.2V70c0,2.9,0.1,6.3,0.3,8.5h-5.4l-0.3-5.7h-0.1c-1.8,3.7-5.8,6.5-11.2,6.5c-8,0-14.1-6.7-14.1-16.7
		c-0.1-10.9,6.7-17.7,14.8-17.7c5,0,8.4,2.4,9.9,5h0.1V30.2H312.6z M306.6,59c0-0.7-0.1-1.8-0.3-2.5c-0.9-3.8-4.1-6.9-8.6-6.9
		c-6.2,0-9.9,5.4-9.9,12.7c0,6.7,3.3,12.2,9.7,12.2c4,0,7.7-2.7,8.8-7.1c0.2-0.8,0.3-1.6,0.3-2.6V59z"/>
</g>
<g>
	<path d="M318.2,23.1v-0.7h4.4v0.7h-1.8v6h-0.9v-6H318.2z"/>
	<path d="M330.5,22.4V29h-0.9v-4.8l-2.2,4.8h-0.6l-2.2-4.8V29h-0.9v-6.7h0.9l2.5,5.5l2.5-5.5h0.9V22.4z"/>
</g>
</svg>
